# xmcd
#
# Track frame offsets: 
#        150
#        20147
#        35181
#        51943
#        79841
#        84503
#        105204
#        123543
#        144490
#        165343
#        185879
#        202533
#        219501
#        232648
#        252183
#        267763
#        286705
#
# Disc length: 3967 seconds
#
# Revision: 0
# Processed by: cddbd v1.5.2PL0 Copyright (c) Steve Scherf et al.
# Submitted via: ExactAudioCopy v1.0b3
#
DISCID=e00f7d11
DTITLE=Super Junior - Super Junior The 1st Asia Tour Concert Album
DYEAR=2008
DGENRE=Pop
TTITLE0=Welcome To S.J.World
TTITLE1=Twins (Knock Out)
TTITLE2=Intro+Rock This House
TTITLE3=Intro+돈돈! (Don’T Don)
TTITLE4=Asian Freak Show
TTITLE5=갈증(A Man In Love)
TTITLE6=거울(Mirror) 
TTITLE7=Ment#1
TTITLE8=사랑이 떠나다(She’S Gone) 
TTITLE9=You'Re My Endless Love(말하자면)
TTITLE10=Dancing Out
TTITLE11=The Night Chicago Died
TTITLE12=동해 - My Everything
TTITLE13=규현, 려욱 - 처음 느낌 그대로
TTITLE14=이특,예성 - 인형
TTITLE15=걸음을 멈추고
TTITLE16=강인, 성민, 시원 - 룩셈부르크
EXTD=
EXTT0=
EXTT1=
EXTT2=
EXTT3=
EXTT4=
EXTT5=
EXTT6=
EXTT7=
EXTT8=
EXTT9=
EXTT10=
EXTT11=
EXTT12=
EXTT13=
EXTT14=
EXTT15=
EXTT16=
PLAYORDER=
